# xmcd CD database file
#
# Track frame offsets:
#	150
#	24467
#	53936
#	83541
#	115693
#	131657
#	154926
#	182621
#	199198
#	223197
#	248834
#	270356
#	287876
#
# Disc length: 4197 seconds
#
# Revision: 0
# Processed by: cddbd v1.4PL0 Copyright (c) Steve Scherf et al.
# Submitted via: CDex 1.50beta9
#
DISCID=b610630d
DTITLE=Brad Mehldau - Places
DYEAR=1900
DGENRE=Jazz
TTITLE0=Los Angeles
TTITLE1=Palms
TTITLE2=Madrid
TTITLE3=Amsterdam
TTITLE4=Los Angeles II
TTITLE5=West Hardford
TTITLE6=Airport Sadness
TTITLE7=Perugia
TTITLE8=Walk In The Park, A
TTITLE9=Paris
TTITLE10=Schloss Elmau
TTITLE11=Am Zauberberg
TTITLE12=Los Angeles (Reprise)
EXTD=
EXTT0=
EXTT1=
EXTT2=
EXTT3=
EXTT4=
EXTT5=
EXTT6=
EXTT7=
EXTT8=
EXTT9=
EXTT10=
EXTT11=
EXTT12=
PLAYORDER=
